<svg width="20" height="20" viewBox="0 0 20 20" fill="none" xmlns="http://www.w3.org/2000/svg">
<path d="M15.833 2.5H7.49967C6.5792 2.5 5.83301 3.24619 5.83301 4.16667V12.5C5.83301 13.4205 6.5792 14.1667 7.49967 14.1667H15.833C16.7535 14.1667 17.4997 13.4205 17.4997 12.5V4.16667C17.4997 3.24619 16.7535 2.5 15.833 2.5Z" stroke="#A6ABBD" stroke-width="1.5" stroke-linecap="round" stroke-linejoin="round"/>
<path d="M14.1667 14.1668V15.8335C14.1667 16.2755 13.9911 16.6994 13.6785 17.012C13.366 17.3246 12.942 17.5002 12.5 17.5002H4.16667C3.72464 17.5002 3.30072 17.3246 2.98816 17.012C2.67559 16.6994 2.5 16.2755 2.5 15.8335V7.50016C2.5 7.05814 2.67559 6.63421 2.98816 6.32165C3.30072 6.00909 3.72464 5.8335 4.16667 5.8335H5.83333" stroke="#A6ABBD" stroke-width="1.5" stroke-linecap="round" stroke-linejoin="round"/>
</svg>
