<svg width="20" height="20" viewBox="0 0 20 20" fill="none" xmlns="http://www.w3.org/2000/svg">
<path d="M2.5 2.5L17.5 17.5" stroke="#A6ABBD" stroke-linecap="round" stroke-linejoin="round"/>
<path d="M12.5003 9.1665H14.167C14.609 9.1665 15.0329 9.3421 15.3455 9.65466C15.6581 9.96722 15.8337 10.3911 15.8337 10.8332V12.4998M15.8337 15.8332C15.8337 16.2752 15.6581 16.6991 15.3455 17.0117C15.0329 17.3242 14.609 17.4998 14.167 17.4998H5.83366C5.39163 17.4998 4.96771 17.3242 4.65515 17.0117C4.34259 16.6991 4.16699 16.2752 4.16699 15.8332V10.8332C4.16699 10.3911 4.34259 9.96722 4.65515 9.65466C4.96771 9.3421 5.39163 9.1665 5.83366 9.1665H9.16699L15.8337 15.8332Z" stroke="#A6ABBD" stroke-linecap="round" stroke-linejoin="round"/>
<path d="M10.0003 14.1667C10.4606 14.1667 10.8337 13.7936 10.8337 13.3333C10.8337 12.8731 10.4606 12.5 10.0003 12.5C9.54009 12.5 9.16699 12.8731 9.16699 13.3333C9.16699 13.7936 9.54009 14.1667 10.0003 14.1667Z" stroke="#A6ABBD" stroke-linecap="round" stroke-linejoin="round"/>
<path d="M7.26033 3.93504C7.66485 3.35116 8.24531 2.91176 8.91708 2.68092C9.58885 2.45009 10.3168 2.43988 10.9948 2.6518C11.6728 2.86371 12.2653 3.28666 12.686 3.85898C13.1068 4.4313 13.3337 5.12305 13.3337 5.83338V9.16671M6.66699 9.16671V6.66671V9.16671Z" stroke="#A6ABBD" stroke-linecap="round" stroke-linejoin="round"/>
</svg>
