<svg width="253" height="164" viewBox="0 0 253 164" fill="none" xmlns="http://www.w3.org/2000/svg">
<g clip-path="url(#clip0_227_1107)">
<path d="M161.031 69.9273C144.708 97.522 129.327 121.981 115.516 147.694C108.61 160.864 99.507 164.627 85.3817 164.314C35.7862 162.746 -0.311864 128.566 0.00203134 81.2161C0.315927 34.4933 36.4139 0.313576 85.3817 0C100.763 0 116.457 0 132.152 0C125.56 26.0268 117.713 32.2983 94.4847 32.9254C85.6956 33.239 76.5926 33.239 68.1174 35.434C47.0864 40.7648 32.0194 61.7744 32.6472 83.4111C33.275 105.048 50.2254 125.117 70.6286 129.82C80.9871 132.015 88.2067 130.134 93.8569 119.786C115.202 81.5296 137.488 43.9006 160.717 3.44933C192.106 57.0708 221.926 109.124 253.002 163.059C212.509 163.059 174.528 163.059 136.233 163.059C143.139 130.761 166.995 128.566 196.501 131.388C183.945 109.438 173.273 90.9369 161.031 69.9273Z" fill="#2A76F4"/>
</g>
<defs>
<clipPath id="clip0_227_1107">
<rect width="253" height="164" fill="white"/>
</clipPath>
</defs>
</svg>
